HIERARCHY
ROOT Hips
{
	OFFSET 0.000000 0.000000 0.000000 
	CHANNELS 6 Xposition Yposition Zposition Yrotation Zrotation Xrotation 
	JOINT Lumbar
	{
		OFFSET 0.000000 0.000000 0.000000 
		CHANNELS 3 Zrotation Xrotation Yrotation
		JOINT Neck
		{
			OFFSET 0.000000 0.445665 0.000000 
			CHANNELS 3 Zrotation Xrotation Yrotation
			End Site
			{
				OFFSET 0.000000 0.227535 0.000000 
			}
		}
		JOINT RightShoulder
		{
			OFFSET 0.019635 0.377685 0.194865 
			CHANNELS 3 Zrotation Xrotation Yrotation
			JOINT RightElbow
			{
				OFFSET 0.000000 -0.243375 0.000000 
				CHANNELS 2 Zrotation Yrotation
				JOINT RightWrist
				{
					OFFSET 0.000000 -0.264825 0.000000 
					CHANNELS 2 Zrotation Xrotation
					End Site
					{
						OFFSET 0.006600 -0.176220 0.000990 
					}
				}
			}
		}
		JOINT LeftShoulder
		{
			OFFSET 0.019635 0.377685 -0.194865 
			CHANNELS 3 Zrotation Xrotation Yrotation
			JOINT LeftElbow
			{
				OFFSET 0.000000 -0.243375 0.000000 
				CHANNELS 2 Zrotation Yrotation
				JOINT LeftWrist
				{
					OFFSET 0.000000 -0.264825 0.000000 
					CHANNELS 2 Zrotation Xrotation
					End Site
					{
						OFFSET 0.006600 -0.176220 -0.000990 
					}
				}
			}
		}
	}
	JOINT RightHip
	{
		OFFSET 0.052140 -0.069960 0.075570 
		CHANNELS 3 Zrotation Xrotation Yrotation
		JOINT RightKnee
		{
			OFFSET 0.000000 -0.402270 0.000000 
			CHANNELS 1 Zrotation
			JOINT RightAnkle
			{
				OFFSET 0.000000 -0.404085 0.000000 
				CHANNELS 3 Zrotation Xrotation Yrotation
				End Site
				{
					OFFSET 0.204105 -0.089430 0.008415 
				}
			}
		}
	}
	JOINT LeftHip
	{
		OFFSET 0.052140 -0.069960 -0.075570 
		CHANNELS 3 Zrotation Xrotation Yrotation
		JOINT LeftKnee
		{
			OFFSET 0.000000 -0.402270 0.000000 
			CHANNELS 1 Zrotation
			JOINT LeftAnkle
			{
				OFFSET 0.000000 -0.404085 0.000000 
				CHANNELS 3 Zrotation Xrotation Yrotation
				End Site
				{
					OFFSET 0.204105 -0.089430 -0.008415 
				}
			}
		}
	}
}
MOTION
Frames: 28
Frame Time: 0.02
0.00081 -9e-05 -0.00035 16.13797 -34.87729 -2.19156 58.4676 0.51613 3.58228 -7.66842 -0.65706 -0.14738 118.79168 -83.04075 -90.01166 9.05615 91.07813 -1.39731 -11.82643 166.19584 80.62807 83.13522 5.33161 -71.48072 2.8847 11.74754 51.02996 2.26648 2.63846 -19.27628 -9.56119 -5.99429 -4.08001 54.22075 -0.24523 3.8772 -24.28136 -8.90125 5.4816 3.72427
0.0004 -0.0002 -0.00066 16.21167 -34.83631 -2.23016 58.45019 0.50152 3.53064 -7.68778 -0.64596 -0.1466 116.49104 -83.03877 -90.01161 9.07291 91.00515 -2.45649 -11.66523 164.56925 80.64744 83.8207 5.33158 -71.11636 2.66528 11.79615 50.99398 2.0725 1.52256 -19.30089 -9.41427 -5.92652 -4.02999 54.19627 -0.18908 4.17793 -24.28589 -8.87141 5.46393 3.70762
-1e-05 -0.00031 -0.00096 16.2851 -34.79544 -2.26866 58.43276 0.48695 3.47911 -7.70704 -0.63488 -0.14581 114.1966 -83.03672 -90.01154 9.08942 90.93238 -3.51239 -11.50432 162.9464 80.66681 84.50408 5.33155 -70.75269 2.4465 11.8446 50.95815 1.87907 0.40996 -19.32547 -9.2678 -5.85895 -3.98012 54.17187 -0.13308 4.47799 -24.29039 -8.84163 5.44628 3.69102
-0.00042 -0.00042 -0.00127 16.35857 -34.75458 -2.30714 58.41539 0.47239 3.42762 -7.72633 -0.62382 -0.14503 111.90309 -83.03473 -90.01151 9.10611 90.85964 -4.5683 -11.34361 161.32473 80.68612 85.18746 5.33152 -70.38938 2.22776 11.8931 50.92227 1.68567 -0.70254 -19.35002 -9.12133 -5.79139 -3.93026 54.14746 -0.07709 4.77784 -24.2949 -8.81188 5.42865 3.67442
-0.00084 -0.00053 -0.00157 16.43233 -34.7136 -2.34572 58.39807 0.45777 3.37602 -7.74575 -0.61275 -0.14425 109.6032 -83.03284 -90.01142 9.12306 90.78665 -5.6275 -11.18263 159.69949 80.70544 85.87294 5.33149 -70.02555 2.00837 11.94166 50.88625 1.49175 -1.81826 -19.37457 -8.97439 -5.72361 -3.88024 54.123 -0.02098 5.07825 -24.29944 -8.7821 5.41102 3.6578
-0.00125 -0.00064 -0.00188 16.50503 -34.67296 -2.38407 58.38044 0.44332 3.32467 -7.76469 -0.60162 -0.14345 107.32006 -83.03048 -90.01137 9.1386 90.7143 -6.6764 -11.02185 158.08159 80.72492 86.55184 5.33146 -69.66224 1.79087 11.98979 50.85082 1.29936 -2.92423 -19.39921 -8.82892 -5.6565 -3.83068 54.09873 0.0348 5.37752 -24.30387 -8.7523 5.39335 3.64123
-0.00166 -0.00075 -0.00219 16.5798 -34.63169 -2.42283 58.36343 0.42855 3.27288 -7.78455 -0.59063 -0.14268 105.00721 -83.02905 -90.01144 9.15711 90.64087 -7.74482 -10.86098 156.45156 80.744 87.2432 5.33142 -69.29827 1.56988 12.03903 50.81421 1.1041 -4.0486 -19.42365 -8.68066 -5.58813 -3.78027 54.07406 0.09119 5.67881 -24.30851 -8.72256 5.37576 3.62457
-0.00207 -0.00086 -0.00249 16.65262 -34.59101 -2.46121 58.34585 0.41405 3.22147 -7.80358 -0.57951 -0.14189 102.71904 -83.0268 -90.01103 9.17262 90.56823 -8.79533 -10.69996 154.83118 80.76353 87.92315 5.3314 -68.93494 1.35198 12.0867 50.77873 0.91149 -5.15601 -19.44828 -8.53496 -5.52091 -3.73064 54.04981 0.14702 5.97816 -24.31297 -8.69279 5.35811 3.608
-0.00249 -0.00097 -0.00279 16.72326 -34.551 -2.49914 58.32757 0.39997 3.17061 -7.82153 -0.56825 -0.14106 100.47073 -83.02336 -90.01148 9.18547 90.49733 -9.82403 -10.53957 153.22778 80.78332 88.58914 5.33137 -68.57205 1.13825 12.13466 50.74447 0.72201 -6.24316 -19.47315 -8.3924 -5.45512 -3.68196 54.0259 0.20217 6.27561 -24.31717 -8.66288 5.34033 3.5915
-0.00289 -0.00109 -0.00311 16.80703 -34.50697 -2.53971 58.3133 0.38374 3.11681 -7.84547 -0.55785 -0.14043 98.02211 -83.0262 -90.01132 9.21667 90.41876 -10.97849 -10.378 151.54217 80.80072 89.33542 5.33131 -68.20554 0.90169 12.18759 50.70269 0.51418 -7.44833 -19.49666 -8.2318 -5.38116 -3.62778 53.99952 0.26125 6.58543 -24.32272 -8.63345 5.32312 3.57448
-0.00332 -0.00118 -0.00339 16.86275 -34.47155 -2.57467 58.29061 0.3719 3.06909 -7.85694 -0.54559 -0.13939 95.97786 -83.01617 -90.00969 9.20722 90.35488 -11.86736 -10.21739 150.02038 80.82373 89.91227 5.33133 -67.84746 0.7126 12.22579 50.67709 0.3453 -8.40346 -19.523 -8.10925 -5.32441 -3.58522 53.97867 0.31201 6.86817 -24.3255 -8.60323 5.30483 3.55865
-0.00379 -0.0012 -0.00357 16.8436 -34.45859 -2.59451 58.24396 0.37338 3.03902 -7.83277 -0.52865 -0.13709 95.19342 -82.96529 -90.01439 9.10177 90.34167 -12.02355 -10.07226 149.00977 80.85718 90.02011 5.3316 -67.50744 0.66041 12.25929 50.69374 0.28225 -8.67494 -19.55765 -8.0922 -5.31552 -3.57483 53.97032 0.3402 7.08427 -24.31993 -8.56907 5.28254 3.54544
-0.00429 -0.00119 -0.00372 16.79584 -34.45443 -2.60864 58.1889 0.37896 3.01468 -7.79644 -0.5098 -0.13445 94.78059 -82.90106 -90.0072 8.95334 90.33975 -11.91439 -9.92594 148.13777 80.89678 89.95855 5.33197 -67.17778 0.6544 12.27225 50.72703 0.25847 -8.69515 -19.59512 -8.11314 -5.32377 -3.57603 53.96797 0.36007 7.27188 -24.31172 -8.53443 5.25936 3.53355
-0.00478 -0.00119 -0.00388 16.75983 -34.44706 -2.62522 58.13841 0.38192 2.98733 -7.76649 -0.49152 -0.13201 94.108 -82.84847 -90.00957 8.8135 90.32791 -11.92841 -9.77145 147.18046 80.93727 89.97725 5.33225 -66.84543 0.62327 12.27019 50.75409 0.2174 -8.82842 -19.63082 -8.11606 -5.32378 -3.57177 53.9647 0.38352 7.46741 -24.30516 -8.5012 5.23727 3.52149
-0.00527 -0.00118 -0.00405 16.7292 -34.4366 -2.64249 58.08523 0.3884 2.9625 -7.73256 -0.47436 -0.1292 93.84685 -82.7784 -90.0294 8.71677 90.3427 -11.92845 -9.65275 146.37698 80.96379 89.98199 5.33263 -66.50059 0.61081 12.36736 50.77554 0.17412 -8.9649 -19.6682 -8.12238 -5.32583 -3.56843 53.95403 0.40756 7.68368 -24.29663 -8.46302 5.21227 3.50765
-0.00576 -0.00119 -0.00419 16.6804 -34.43435 -2.65688 58.03507 0.38811 2.93279 -7.7045 -0.45457 -0.12726 92.78296 -82.73395 -89.96612 8.52381 90.29669 -11.89787 -9.46047 145.21156 81.01888 89.97539 5.33293 -66.18921 0.56902 12.25743 50.81265 0.14467 -9.03647 -19.70323 -8.13046 -5.32755 -3.56584 53.95992 0.42871 7.85052 -24.29166 -8.43494 5.19312 3.49781
-0.00627 -0.00125 -0.0043 16.5897 -34.45542 -2.66527 58.00017 0.37161 2.89676 -7.6911 -0.42678 -0.12621 89.70835 -82.82334 -90.06701 8.05068 90.15172 -11.82033 -9.05416 143.66328 81.16306 89.98127 5.33258 -65.92475 0.44518 11.54191 50.88892 0.14432 -8.98003 -19.72737 -8.13527 -5.32516 -3.56308 54.01251 0.44126 7.88367 -24.2966 -8.43568 5.1905 3.49888
-0.00678 -0.00133 -0.00438 16.48121 -34.48399 -2.67076 57.96762 0.34751 2.85403 -7.68461 -0.3967 -0.12632 85.76428 -82.92413 -90.02217 7.49165 89.93418 -11.72553 -8.57569 141.63492 81.32983 89.98086 5.33263 -65.70144 0.2874 10.62562 50.98056 0.1564 -8.86905 -19.74992 -8.14026 -5.32159 -3.56053 54.08119 0.45175 7.86904 -24.30545 -8.44638 5.19377 3.50388
-0.00729 -0.00141 -0.00446 16.38036 -34.50719 -2.67733 57.9309 0.32459 2.80878 -7.67825 -0.36837 -0.12695 82.01489 -82.98513 -89.77454 6.98231 89.69977 -11.65768 -8.13789 139.38642 81.48334 89.98223 5.33221 -65.48763 0.13957 9.82704 51.06492 0.16251 -8.78972 -19.77545 -8.14447 -5.31799 -3.55753 54.14078 0.4649 7.87882 -24.31275 -8.45212 5.19425 3.50696
-0.00778 -0.00147 -0.00462 16.28147 -34.53866 -2.6851 57.90729 0.31137 2.78727 -7.65874 -0.33671 -0.12323 79.09695 -83.20687 -90.61937 6.40695 89.6663 -11.5032 -7.6678 138.95025 81.66514 89.98355 5.33128 -65.15577 0.02017 8.91722 51.15033 0.17149 -8.6722 -19.7909 -8.1532 -5.31765 -3.55658 54.20771 0.4703 7.87546 -24.31852 -8.46004 5.1952 3.5107
-0.00832 -0.00157 -0.00459 16.17331 -34.55498 -2.68926 57.85664 0.27614 2.71458 -7.66707 -0.31179 -0.12876 74.27078 -83.07778 -89.2081 5.97378 89.20935 -11.52437 -7.24656 134.67743 81.77393 89.98405 5.33369 -65.07862 -0.17177 8.19016 51.23798 0.17676 -8.62508 -19.82775 -8.15175 -5.3097 -3.55109 54.26357 0.49167 7.88945 -24.32901 -8.46535 5.19654 3.51392
-0.00897 -0.00178 -0.00405 16.05479 -34.52407 -2.68832 57.73414 0.18168 2.50258 -7.76164 -0.30319 -0.1603 64.08894 -82.13883 -81.13232 5.73795 87.49257 -12.07095 -6.98934 119.46725 81.83779 89.99122 5.32837 -65.70189 -0.51315 8.02757 51.31961 0.16995 -8.78189 -19.9174 -8.12483 -5.28372 -3.53451 54.28067 0.55591 7.95468 -24.34679 -8.46493 5.19798 3.51526
-0.00967 -0.00205 -0.00331 15.92534 -34.47824 -2.6831 57.58363 0.06539 2.23915 -7.88165 -0.30184 -0.20099 52.07328 -80.81656 -70.87375 5.68405 85.37137 -12.78887 -6.78193 100.50237 81.79479 89.99205 5.33083 -66.57872 -0.93246 8.05225 51.40462 0.15859 -9.01294 -20.03025 -8.08699 -5.24956 -3.51302 54.28675 0.63662 8.04043 -24.37015 -8.46087 5.19956 3.51587
-0.01036 -0.0023 -0.00265 15.79429 -34.44158 -2.67719 57.44392 -0.04071 1.99908 -7.98328 -0.2992 -0.23699 41.08816 -79.56347 -61.92957 5.69495 83.50735 -13.40678 -6.54378 83.55196 81.69723 89.99842 5.33911 -67.33466 -1.34693 7.9864 51.49335 0.14826 -9.21439 -20.13633 -8.05216 -5.21729 -3.49272 54.30074 0.71103 8.12283 -24.39401 -8.45587 5.20071 3.51645
-0.01102 -0.00251 -0.00203 15.69163 -34.39523 -2.68238 57.31295 -0.14821 1.75908 -8.11533 -0.28859 -0.27525 29.22988 -78.75303 -51.6404 5.09962 81.3346 -14.11994 -6.33604 65.26518 82.04521 90.01464 5.3026 -68.11573 -1.64211 7.94332 51.55978 0.14257 -9.39823 -20.2248 -8.02549 -5.19266 -3.47683 54.30338 0.78055 8.17957 -24.40488 -8.46197 5.20343 3.51857
-0.01173 -0.00282 -0.00129 15.52586 -34.36526 -2.66336 57.15644 -0.2579 1.50652 -8.18821 -0.29559 -0.311 18.7795 -76.93085 -43.60951 5.78691 79.70525 -14.67245 -6.07936 48.90011 81.42777 89.98209 5.36786 -68.90438 -2.19297 7.89129 51.67406 0.12622 -9.63472 -20.35752 -7.97939 -5.15024 -3.4506 54.32641 0.86396 8.2937 -24.44448 -8.44419 5.20305 3.5174
-0.01264 -0.0034 -0.00024 15.20251 -34.38527 -2.57944 56.94122 -0.36805 1.2339 -8.10602 -0.35632 -0.33736 12.55496 -72.39718 -42.5811 10.17926 79.71532 -14.76624 -5.66008 38.56436 78.27406 90.04379 5.65262 -69.64989 -3.52417 7.84376 51.91333 0.07887 -10.02022 -20.58999 -7.88092 -5.05992 -3.39673 54.4116 0.9836 8.57422 -24.55863 -8.35934 5.19227 3.50618
-0.01358 -0.00409 0.00094 14.81371 -34.42185 -2.4712 56.69996 -0.47965 0.94988 -7.96028 -0.43352 -0.36091 7.83545 -66.86209 -43.85924 15.81575 80.27931 -14.68686 -5.19189 30.33367 74.13593 90.01251 6.04864 -70.39456 -5.09248 7.76794 52.20207 0.02112 -10.45271 -20.86977 -7.76356 -4.95199 -3.33261 54.51674 1.11619 8.90916 -24.70211 -8.25094 5.17866 3.49186
